<?xml version="1.0" encoding="utf-8"?>
<!-- Generator: Adobe Illustrator 17.0.2, SVG Export Plug-In . SVG Version: 6.00 Build 0)  -->
<!DOCTYPE svg PUBLIC "-//W3C//DTD SVG 1.1//EN" "http://www.w3.org/Graphics/SVG/1.1/DTD/svg11.dtd">
<svg version="1.1" id="Layer_1" xmlns="http://www.w3.org/2000/svg" xmlns:xlink="http://www.w3.org/1999/xlink" x="0px" y="0px"
	 width="170px" height="56px" viewBox="0 0 170 56" enable-background="new 0 0 170 56" xml:space="preserve">
<g>
	<path d="M118.004,44.8c1.743,0,3.299,0.483,3.299,0.483c0.071-2.189-0.556-3.228-2.372-3.228c-1.558,0-3.819,0.336-4.82,0.631
		c-0.556,0.184-0.892-0.223-0.963-0.741l-0.372-1.927c-0.149-0.629,0.184-0.926,0.555-1.036c0.372-0.148,3.078-0.854,5.858-0.854
		c5.336,0,6.45,2.779,6.45,7.45v9.23c0,0.443-0.372,0.813-0.819,0.813h-1.258c-0.296,0-0.519-0.111-0.743-0.591l-0.479-1.149
		c-1.003,0.963-2.707,2.148-5.376,2.148c-3.41,0-5.783-2.187-5.783-5.855C111.183,47.135,113.667,44.8,118.004,44.8z
		 M118.117,52.583c1.517,0,2.85-1.187,3.073-1.817v-2.52c0,0-1.149-0.518-2.519-0.518c-1.964,0-3.038,0.926-3.038,2.446
		C115.633,51.62,116.523,52.583,118.117,52.583z"/>
	<path d="M129.255,30.491c0-0.408,0.408-0.815,0.815-0.815h3.002c0.443,0,0.816,0.407,0.816,0.815v8.378
		c0.779-0.334,2.484-0.741,4.189-0.741c5.077,0,8.303,3.928,8.303,8.932c0,4.893-3.374,8.969-8.044,8.969
		c-3.742,0-5.706-2.556-5.706-2.556l-0.408,1.335c-0.188,0.479-0.446,0.813-0.854,0.813h-1.298c-0.407,0-0.815-0.37-0.815-0.813
		V30.491z M137.669,51.804c2.668,0,4.042-2.336,4.042-4.745c0-2.407-1.446-4.707-4.266-4.707c-2.148,0-3.558,0.965-3.558,0.965
		v6.115C134.259,50.395,135.445,51.804,137.669,51.804z"/>
	<path d="M148.652,39.312c0-0.479,0.408-0.815,0.815-0.815h3.003c0.407,0,0.815,0.336,0.815,0.815v15.496
		c0,0.443-0.408,0.813-0.815,0.813h-3.003c-0.407,0-0.815-0.37-0.815-0.813V39.312z"/>
	<path d="M156.992,30.491c0-0.408,0.407-0.815,0.815-0.815h3.002c0.408,0,0.815,0.407,0.815,0.815v24.317
		c0,0.443-0.407,0.813-0.815,0.813h-3.002c-0.408,0-0.815-0.37-0.815-0.813V30.491z"/>
	<path d="M165.368,30.491c0-0.408,0.407-0.815,0.815-0.815h3.002c0.408,0,0.815,0.407,0.815,0.815v24.317
		c0,0.443-0.407,0.813-0.815,0.813h-3.002c-0.408,0-0.815-0.37-0.815-0.813V30.491z"/>
	<path fill="#FF671B" d="M0,39.269c0-0.482,0.407-0.817,0.815-0.817h1.372c0.407,0,0.593,0.186,0.742,0.558l0.631,1.667
		c0.593-0.852,2.187-2.595,4.82-2.595c2.04,0,3.708,0.556,3.226,1.669l-1.112,2.521c-0.186,0.408-0.593,0.556-1.001,0.37
		c-0.408-0.186-0.817-0.334-1.595-0.334c-1.854,0-2.967,1.186-3.263,1.78v10.68c0,0.631-0.408,0.817-0.964,0.817H0.815
		C0.407,55.585,0,55.213,0,54.768V39.269z"/>
	<path fill="#FF671B" d="M21.508,38.082c4.45,0,7.862,3.301,7.862,7.935c0,0.261-0.037,0.855-0.074,1.114
		c-0.037,0.445-0.445,0.779-0.816,0.779H17.504c0.037,2.112,1.78,3.967,4.265,3.967c1.705,0,2.892-0.631,3.671-1.262
		c0.407-0.332,0.852-0.37,1.112,0l1.447,1.929c0.297,0.334,0.333,0.741-0.075,1.113c-1.483,1.26-3.597,2.336-6.378,2.336
		c-5.116,0-8.676-4.078-8.676-8.973C12.869,42.198,16.429,38.082,21.508,38.082z M24.697,44.868
		c-0.074-1.669-1.409-2.966-3.301-2.966c-2.076,0-3.411,1.262-3.633,2.966H24.697z"/>
	<path fill="#FF671B" d="M32.857,39.269c0-0.482,0.408-0.817,0.816-0.817h1.335c0.371,0,0.631,0.186,0.704,0.483l0.631,1.631
		c0.704-0.815,2.225-2.484,5.229-2.484c2.484,0,3.708,0.89,5.116,2.595c0.742-0.778,2.449-2.595,5.526-2.595
		c5.488,0,6.786,3.485,6.786,7.935v8.752c0,0.445-0.37,0.817-0.852,0.817H55.18c-0.445,0-0.816-0.371-0.816-0.817v-8.863
		c0-2.225-0.816-3.597-2.967-3.597c-2.485,0-3.189,1.78-3.189,1.78s0.074,0.854,0.074,1.632v9.048c0,0.445-0.409,0.817-0.816,0.817
		h-3.041c-0.482,0-0.816-0.371-0.816-0.817v-8.863c0-2.225-0.631-3.597-2.818-3.597c-2.114,0-2.892,1.483-3.301,2.67v9.79
		c0,0.445-0.407,0.817-0.815,0.817h-3.004c-0.407,0-0.816-0.371-0.816-0.817V39.269z"/>
	<path fill="#FF671B" d="M62.89,39.269c0-0.482,0.407-0.817,0.815-0.817h3.004c0.408,0,0.816,0.334,0.816,0.817v15.5
		c0,0.445-0.408,0.817-0.816,0.817h-3.004c-0.408,0-0.815-0.371-0.815-0.817V39.269z"/>
	<path fill="#FF671B" d="M71.548,39.269c0-0.482,0.407-0.817,0.815-0.817h1.41c0.408,0,0.593,0.186,0.704,0.52l0.631,1.594
		c0.63-0.704,2.225-2.484,5.525-2.484c5.452,0,6.86,3.671,6.86,7.824v8.863c0,0.445-0.407,0.817-0.815,0.817h-3.004
		c-0.445,0-0.816-0.371-0.816-0.817v-8.863c0-2.225-0.89-3.597-2.966-3.597c-2.225,0-3.3,1.483-3.708,2.67v9.79
		c0,0.631-0.26,0.817-1.075,0.817h-2.745c-0.408,0-0.815-0.371-0.815-0.817V39.269z"/>
	<path fill="#FF671B" d="M99.159,38.082c1.707,0,3.338,0.408,4.116,0.704v-8.344c0-0.407,0.409-0.815,0.817-0.815h3.004
		c0.445,0,0.815,0.408,0.815,0.815v24.326c0,0.445-0.37,0.817-0.815,0.817h-1.372c-0.407,0-0.668-0.334-0.817-0.817l-0.445-1.335
		c0,0-1.964,2.559-5.599,2.559c-4.672,0-8.196-3.782-8.196-8.973C90.667,42.012,94.043,38.082,99.159,38.082z M103.275,43.274
		c0,0-1.408-0.965-3.56-0.965c-2.818,0-4.264,2.3-4.264,4.711c0,2.409,1.373,4.747,4.042,4.747c2.225,0,3.412-1.41,3.782-2.373
		V43.274z"/>
	<path fill="#FF671B" d="M68.286,34.468c0,1.395-1.357,2.527-3.028,2.527c-1.666,0-3.023-1.132-3.023-2.527
		c0-1.396,1.357-2.526,3.023-2.526C66.929,31.942,68.286,33.072,68.286,34.468z"/>
	<path fill="#FF671B" d="M154.002,34.468c0,1.395-1.357,2.527-3.028,2.527c-1.666,0-3.023-1.132-3.023-2.527
		c0-1.396,1.357-2.526,3.023-2.526C152.645,31.942,154.002,33.072,154.002,34.468z"/>
	<path fill="#FF671B" d="M139.216,28.54c0,1.834,1.965,3.318,4.389,3.318c2.423,0,4.389-1.484,4.389-3.318
		c0-1.836-1.966-3.32-4.389-3.32C141.181,25.22,139.216,26.704,139.216,28.54z"/>
	<path fill="#FF671B" d="M164.965,11.966c0,6.626-6.929,11.998-15.473,11.998c-8.545,0-15.471-5.372-15.471-11.998
		c0-6.623,6.926-11.994,15.471-11.994C158.037-0.028,164.965,5.343,164.965,11.966z"/>
	<path fill="#FFFFFF" d="M144.988,17.416c-0.184-0.184-0.286-0.307-0.103-0.615l0.801-1.231c0.163-0.266,0.41-0.307,0.82,0.041
		c0.615,0.513,1.476,0.964,2.379,1.108v-3.999c-1.907-0.759-4.06-1.846-4.06-4.554c0-1.948,1.251-3.671,4.06-3.897V3.613
		c0-0.226,0.185-0.39,0.39-0.39h0.267c0.205,0,0.389,0.164,0.389,0.39V4.29c1.826,0.144,3.24,1.067,3.61,1.333
		c0.204,0.123,0.266,0.451,0.122,0.677l-0.82,1.189c-0.163,0.225-0.39,0.287-0.574,0.164c-0.575-0.391-1.374-0.903-2.339-1.108
		c0,1.23,0,2.522,0,3.753c1.785,0.739,4.266,1.969,4.266,4.656c0,2.236-1.517,3.876-4.266,4.041v1.025
		c0,0.225-0.185,0.369-0.41,0.369c-0.246,0-0.636-0.021-0.636-0.369v-1.025C146.67,18.831,145.357,17.764,144.988,17.416z
		 M148.885,6.546c-1.025,0.123-1.558,0.717-1.558,1.518c0,0.82,0.513,1.271,1.558,1.824V6.546z M151.511,15.242
		c0-0.8-0.472-1.517-1.579-2.092v3.61C150.854,16.657,151.511,16.165,151.511,15.242z"/>
</g>
</svg>
